<svg data-v-423bf9ae="" xmlns="http://www.w3.org/2000/svg" viewBox="0 0 94.8601207251251 60" class="font"><!----><!----><!----><g data-v-423bf9ae="" id="684bd83c-8655-421a-91ca-a36de4d41074" fill="black" transform="matrix(3.9037087943793645,0,0,3.9037087943793645,-11.437868196129948,-18.972025738722223)"><path d="M6.58 10.35L6.58 10.35Q7.63 9.20 8.46 7.91Q9.30 6.62 10.01 5.01L10.01 5.01Q10.37 5.05 10.71 5.21Q11.05 5.36 11.24 5.56L11.24 5.56Q10.47 6.48 9.85 7.24Q9.23 7.99 8.71 8.66Q8.19 9.32 7.75 9.93Q7.31 10.54 6.89 11.16L6.89 11.16Q6.68 11.87 6.50 12.60Q6.31 13.33 6.17 13.99Q6.03 14.66 5.96 15.22Q5.88 15.79 5.88 16.20L5.88 16.20Q5.73 16.20 5.39 16.14Q5.05 16.07 4.70 15.99Q4.35 15.90 4.07 15.82Q3.78 15.74 3.72 15.68L3.72 15.68Q3.95 15.30 4.17 14.75Q4.38 14.20 4.59 13.59Q4.80 12.98 5.00 12.36Q5.19 11.73 5.36 11.20L5.36 11.20Q5.01 10.11 4.68 9.15Q4.35 8.19 4.05 7.41Q3.74 6.64 3.46 6.08Q3.18 5.52 2.93 5.22L2.93 5.22Q3.07 5.17 3.35 5.11Q3.64 5.05 3.98 5.00Q4.33 4.94 4.68 4.91Q5.04 4.87 5.32 4.86L5.32 4.86Q5.32 5.21 5.38 5.71Q5.45 6.22 5.55 6.79Q5.66 7.36 5.80 7.95Q5.94 8.54 6.08 9.03Q6.22 9.52 6.35 9.88Q6.48 10.23 6.58 10.35ZM13.62 9.60L13.62 9.60Q13.61 9.87 13.53 10.16Q13.45 10.44 13.34 10.68Q13.23 10.91 13.10 11.06Q12.98 11.21 12.87 11.21L12.87 11.21Q12.71 11.20 12.68 11.00L12.68 11.00Q12.68 10.96 12.72 10.87Q12.75 10.78 12.80 10.67Q12.84 10.56 12.87 10.44Q12.91 10.33 12.91 10.25L12.91 10.25Q12.91 10.05 12.82 9.92Q12.73 9.79 12.57 9.79L12.57 9.79Q12.01 9.79 11.72 10.49Q11.42 11.19 11.42 12.54L11.42 12.54Q11.42 12.68 11.44 12.71L11.44 12.71Q11.73 12.70 11.96 12.69Q12.19 12.68 12.42 12.68L12.42 12.68Q12.43 12.71 12.43 12.80L12.43 12.80Q12.43 12.92 12.38 12.98L12.38 12.98Q12.05 13.05 11.87 13.10Q11.68 13.15 11.58 13.19Q11.48 13.23 11.46 13.28Q11.44 13.33 11.44 13.41L11.44 13.41Q11.44 13.52 11.45 13.64Q11.45 13.75 11.45 13.92L11.45 13.92Q11.45 15.09 10.82 15.81Q10.18 16.52 9.04 16.63L9.04 16.63Q8.85 16.62 8.64 16.52Q8.43 16.42 8.24 16.27Q8.05 16.11 7.91 15.93Q7.77 15.74 7.71 15.54L7.71 15.54Q7.71 15.01 7.94 14.53Q8.16 14.04 8.55 13.67Q8.93 13.30 9.46 13.07Q9.98 12.84 10.60 12.80L10.60 12.80Q10.60 12.45 10.53 12.11Q10.46 11.77 10.38 11.46Q10.30 11.14 10.23 10.84Q10.16 10.54 10.16 10.25L10.16 10.25Q10.16 9.87 10.32 9.50Q10.47 9.13 10.72 8.81Q10.98 8.50 11.31 8.27Q11.65 8.05 12.01 7.97L12.01 7.97Q12.17 8.01 12.43 8.21Q12.68 8.41 12.94 8.67Q13.19 8.92 13.38 9.18Q13.58 9.44 13.62 9.60ZM9.00 15.99L9.00 15.99Q9.34 15.85 9.64 15.58Q9.94 15.32 10.16 14.98Q10.39 14.64 10.52 14.27Q10.65 13.89 10.65 13.52L10.65 13.52Q10.37 13.57 10.04 13.78Q9.70 14 9.41 14.30Q9.11 14.60 8.92 14.92Q8.72 15.25 8.72 15.48L8.72 15.48Q8.72 15.79 9.00 15.99ZM18.90 13.01L18.90 13.01Q18.58 14.03 18.26 14.87Q17.93 15.71 17.57 16.41Q17.21 17.12 16.79 17.72Q16.37 18.31 15.86 18.84L15.86 18.84Q15.22 19.52 14.53 19.87Q13.85 20.23 13.16 20.23L13.16 20.23Q12.81 20.23 12.47 20.15Q12.12 20.08 11.82 19.94Q11.52 19.81 11.29 19.64Q11.06 19.46 10.96 19.26L10.96 19.26Q10.96 19.10 11.16 18.97L11.16 18.97Q11.33 19.12 11.44 19.21Q11.55 19.29 11.66 19.35Q11.76 19.40 11.88 19.42Q12.00 19.43 12.15 19.43L12.15 19.43Q12.95 19.43 13.71 18.96Q14.48 18.49 15.16 17.63Q15.83 16.77 16.39 15.55Q16.95 14.32 17.35 12.81L17.35 12.81Q17.16 13.09 16.90 13.50Q16.63 13.90 16.31 14.30Q15.99 14.70 15.65 15.02Q15.30 15.34 14.98 15.46L14.98 15.46Q14.76 15.44 14.51 15.37Q14.27 15.29 14.05 15.15Q13.83 15.01 13.66 14.81Q13.50 14.62 13.44 14.36L13.44 14.36Q13.44 13.96 13.47 13.71Q13.50 13.47 13.57 13.17L13.57 13.17Q13.69 12.64 13.94 11.97Q14.18 11.30 14.51 10.65Q14.84 10.00 15.24 9.43Q15.64 8.86 16.07 8.54L16.07 8.54Q16.18 8.54 16.35 8.56Q16.52 8.58 16.70 8.64Q16.88 8.69 17.05 8.77Q17.22 8.85 17.35 8.97L17.35 8.97Q17.19 9.11 16.67 9.91Q16.16 10.71 15.53 12.21L15.53 12.21Q15.46 12.36 15.36 12.66Q15.26 12.95 15.17 13.27Q15.08 13.59 15.01 13.90Q14.94 14.21 14.94 14.39L14.94 14.39Q14.94 14.50 14.97 14.56Q15.01 14.62 15.04 14.64L15.04 14.64Q15.29 14.60 15.71 14.23Q16.13 13.86 16.66 13.08L16.66 13.08Q17.00 12.57 17.28 12.07Q17.56 11.58 17.83 11.07Q18.10 10.57 18.40 10.04Q18.69 9.51 19.03 8.95L19.03 8.95Q19.21 8.95 19.42 8.99Q19.63 9.03 19.82 9.09Q20.02 9.16 20.17 9.23Q20.31 9.31 20.38 9.39L20.38 9.39Q19.95 10.32 19.57 11.20Q19.19 12.08 18.90 13.01ZM25.75 13.01L25.75 13.01Q25.42 14.03 25.10 14.87Q24.78 15.71 24.42 16.41Q24.05 17.12 23.63 17.72Q23.21 18.31 22.71 18.84L22.71 18.84Q22.06 19.52 21.38 19.87Q20.69 20.23 20.01 20.23L20.01 20.23Q19.66 20.23 19.31 20.15Q18.97 20.08 18.67 19.94Q18.37 19.81 18.14 19.64Q17.91 19.46 17.81 19.26L17.81 19.26Q17.81 19.10 18.00 18.97L18.00 18.97Q18.17 19.12 18.28 19.21Q18.40 19.29 18.50 19.35Q18.61 19.40 18.73 19.42Q18.84 19.43 19.00 19.43L19.00 19.43Q19.80 19.43 20.56 18.96Q21.32 18.49 22.00 17.63Q22.68 16.77 23.24 15.55Q23.80 14.32 24.19 12.81L24.19 12.81Q24.01 13.09 23.74 13.50Q23.48 13.90 23.16 14.30Q22.83 14.70 22.49 15.02Q22.15 15.34 21.83 15.46L21.83 15.46Q21.60 15.44 21.36 15.37Q21.11 15.29 20.90 15.15Q20.68 15.01 20.51 14.81Q20.34 14.62 20.29 14.36L20.29 14.36Q20.29 13.96 20.31 13.71Q20.34 13.47 20.41 13.17L20.41 13.17Q20.54 12.64 20.78 11.97Q21.03 11.30 21.36 10.65Q21.69 10.00 22.09 9.43Q22.48 8.86 22.92 8.54L22.92 8.54Q23.03 8.54 23.20 8.56Q23.37 8.58 23.55 8.64Q23.73 8.69 23.90 8.77Q24.07 8.85 24.19 8.97L24.19 8.97Q24.04 9.11 23.52 9.91Q23.00 10.71 22.37 12.21L22.37 12.21Q22.30 12.36 22.20 12.66Q22.11 12.95 22.02 13.27Q21.92 13.59 21.85 13.90Q21.78 14.21 21.78 14.39L21.78 14.39Q21.78 14.50 21.82 14.56Q21.85 14.62 21.88 14.64L21.88 14.64Q22.13 14.60 22.55 14.23Q22.97 13.86 23.51 13.08L23.51 13.08Q23.84 12.57 24.12 12.07Q24.40 11.58 24.68 11.07Q24.95 10.57 25.24 10.04Q25.54 9.51 25.87 8.95L25.87 8.95Q26.05 8.95 26.26 8.99Q26.47 9.03 26.67 9.09Q26.87 9.16 27.01 9.23Q27.16 9.31 27.23 9.39L27.23 9.39Q26.80 10.32 26.42 11.20Q26.04 12.08 25.75 13.01Z"></path></g><!----><!----></svg>